<svg id="Isotipo_B" data-name="Isotipo B" xmlns="http://www.w3.org/2000/svg" viewBox="0 0 789.34 642.74"><defs><style>.cls-1{fill:#e94662;}</style></defs><title>logo-hackupc-complet</title><polygon class="cls-1" points="409.35 217.66 379.88 217.63 375.12 215.63 374.53 215.03 288.01 128.31 286.08 123.53 286.06 94.22 288.08 89.25 304.38 72.88 310.45 78.92 295.36 94.07 294.62 95.89 294.63 121.86 295.3 123.5 379.99 208.39 381.61 209.07 407.74 209.1 409.18 208.53 494 123.53 494.58 122.07 494.56 95.9 493.89 94.28 409.42 9.48 407.18 8.57 381.74 8.56 379.69 9.42 332.7 56.57 326.64 50.53 374.81 2.19 380.01 0 408.86 0.01 414.25 2.21 501.15 89.44 503.12 94.19 503.14 123.74 501.28 128.34 413.97 215.85 409.35 217.66"/><path class="cls-1" d="M525,169a13.69,13.69,0,1,1,13.67-13.68A13.69,13.69,0,0,1,525,169Zm0-18.81a5.13,5.13,0,1,0,5.11,5.13A5.13,5.13,0,0,0,525,150.14Z" transform="translate(-200.6 -96.47)"/><polygon class="cls-1" points="234.15 363.67 229.53 361.85 142.23 274.35 140.36 269.75 140.38 240.2 142.36 235.44 229.25 148.22 234.65 146.02 263.5 146.01 268.69 148.19 316.87 196.53 310.81 202.58 263.82 155.43 261.77 154.57 236.33 154.58 234.09 155.49 149.61 240.29 148.94 241.91 148.92 268.08 149.51 269.53 234.33 354.54 235.77 355.11 261.89 355.08 263.51 354.4 348.21 269.51 348.87 267.87 348.88 241.89 348.15 240.07 333.06 224.92 339.13 218.88 355.43 235.26 357.45 240.22 357.43 269.53 355.5 274.32 354.88 274.94 268.38 361.63 263.63 363.63 234.15 363.67"/><path class="cls-1" d="M519.67,315a13.69,13.69,0,1,1,13.67-13.69A13.69,13.69,0,0,1,519.67,315Zm0-18.81a5.13,5.13,0,1,0,5.11,5.12A5.13,5.13,0,0,0,519.67,296.15Z" transform="translate(-200.6 -96.47)"/><polygon class="cls-1" points="525.51 363.62 520.91 361.75 433.61 274.24 431.8 269.62 431.83 240.09 433.82 235.33 520.94 148.02 525.72 146.08 554.98 146.06 559.94 148.09 576.27 164.43 570.22 170.48 555.11 155.36 553.3 154.62 527.39 154.64 525.77 155.3 441.07 240.19 440.39 241.81 440.36 268.01 440.93 269.46 525.74 354.47 527.18 355.06 553.28 355.04 554.89 354.37 639.5 269.7 640.41 267.45 640.42 241.94 639.56 239.88 592.52 192.78 598.58 186.74 646.8 235.02 648.98 240.22 648.97 269.13 646.78 274.53 559.75 361.62 555 363.6 525.51 363.62"/><path class="cls-1" d="M790.91,294.67A13.69,13.69,0,1,1,804.58,281,13.7,13.7,0,0,1,790.91,294.67Zm0-18.81A5.13,5.13,0,1,0,796,281,5.13,5.13,0,0,0,790.91,275.86Z" transform="translate(-200.6 -96.47)"/><polygon class="cls-1" points="410.03 510.24 380.53 510.21 375.79 508.23 288.76 421.14 286.56 415.74 286.55 386.84 288.73 381.64 336.96 333.35 343.02 339.4 295.98 386.5 295.11 388.56 295.12 414.06 296.04 416.32 380.64 500.99 382.25 501.66 408.35 501.68 409.79 501.09 494.61 416.08 495.18 414.63 495.15 388.43 494.47 386.8 409.77 301.91 408.14 301.25 382.24 301.24 380.43 301.97 365.31 317.09 359.26 311.04 375.6 294.7 380.56 292.68 409.81 292.69 414.6 294.63 501.71 381.94 503.7 386.71 503.74 416.24 501.93 420.86 414.63 508.36 410.03 510.24"/><path class="cls-1" d="M545.83,441.29A13.69,13.69,0,1,1,559.5,427.6,13.69,13.69,0,0,1,545.83,441.29Zm0-18.82a5.13,5.13,0,1,0,5.11,5.13A5.12,5.12,0,0,0,545.83,422.47Z" transform="translate(-200.6 -96.47)"/><path class="cls-1" d="M615.15,176.69A13.69,13.69,0,1,1,628.82,163,13.69,13.69,0,0,1,615.15,176.69Zm0-18.82a5.13,5.13,0,1,0,5.11,5.13A5.12,5.12,0,0,0,615.15,157.87Z" transform="translate(-200.6 -96.47)"/><path class="cls-1" d="M655.15,216.77a13.69,13.69,0,1,1,13.66-13.68A13.69,13.69,0,0,1,655.15,216.77Zm0-18.81a5.13,5.13,0,1,0,5.1,5.13A5.12,5.12,0,0,0,655.15,198Z" transform="translate(-200.6 -96.47)"/><rect class="cls-1" x="630.87" y="164.13" width="8.56" height="37.83" transform="translate(-144.37 405.61) rotate(-44.94)"/><path class="cls-1" d="M422.94,408.94a13.69,13.69,0,1,1,13.67-13.69A13.69,13.69,0,0,1,422.94,408.94Zm0-18.82a5.13,5.13,0,1,0,5.11,5.13A5.12,5.12,0,0,0,422.94,390.12Z" transform="translate(-200.6 -96.47)"/><path class="cls-1" d="M462.9,409a13.69,13.69,0,1,1,13.67-13.69A13.69,13.69,0,0,1,462.9,409Zm0-18.82a5.13,5.13,0,1,0,5.11,5.13A5.12,5.12,0,0,0,462.9,390.15Z" transform="translate(-200.6 -96.47)"/><polygon class="cls-1" points="241.91 325.42 225.42 308.94 231.48 302.89 241.91 313.32 252.71 302.51 258.76 308.56 241.91 325.42"/><path class="cls-1" d="M519.67,315a13.69,13.69,0,1,1,13.67-13.69A13.69,13.69,0,0,1,519.67,315Zm0-18.81a5.13,5.13,0,1,0,5.11,5.12A5.13,5.13,0,0,0,519.67,296.15Z" transform="translate(-200.6 -96.47)"/><path class="cls-1" d="M548.82,536.54a13.69,13.69,0,1,1,13.66-13.68A13.69,13.69,0,0,1,548.82,536.54Zm0-18.81a5.13,5.13,0,1,0,5.1,5.13A5.12,5.12,0,0,0,548.82,517.73Z" transform="translate(-200.6 -96.47)"/><path class="cls-1" d="M588.81,576.63a13.69,13.69,0,1,1,13.67-13.69A13.7,13.7,0,0,1,588.81,576.63Zm0-18.82a5.13,5.13,0,1,0,5.11,5.13A5.13,5.13,0,0,0,588.81,557.81Z" transform="translate(-200.6 -96.47)"/><rect class="cls-1" x="564.53" y="523.98" width="8.56" height="37.83" transform="translate(-417.91 463.86) rotate(-44.93)"/><path class="cls-1" d="M700.22,344.35a13.67,13.67,0,1,1,13.68-13.67A13.69,13.69,0,0,1,700.22,344.35Zm0-18.77a5.11,5.11,0,1,0,5.12,5.1A5.12,5.12,0,0,0,700.22,325.58Z" transform="translate(-200.6 -96.47)"/><path class="cls-1" d="M700.19,384.31a13.67,13.67,0,1,1,13.68-13.66A13.69,13.69,0,0,1,700.19,384.31Zm0-18.77a5.11,5.11,0,1,0,5.12,5.11A5.12,5.12,0,0,0,700.19,365.54Z" transform="translate(-200.6 -96.47)"/><polygon class="cls-1" points="489.83 270.64 472.98 253.78 489.46 237.3 495.51 243.35 485.08 253.78 495.89 264.59 489.83 270.64"/><path class="cls-1" d="M291.81,628.2V737.34H280.43V687H212.14v50.36H200.6V628.2h11.54v48.65h68.29V628.2Z" transform="translate(-200.6 -96.47)"/><path class="cls-1" d="M395.8,708.18H335L321.9,737.34h-12L359.78,628.2h11.38l49.89,109.14H408.89Zm-4.21-9.35-26.2-58.62L339.2,698.83Z" transform="translate(-200.6 -96.47)"/><path class="cls-1" d="M455.74,731.1a52.39,52.39,0,0,1-20.42-19.88,58.32,58.32,0,0,1,0-56.9,52.33,52.33,0,0,1,20.5-19.88,60,60,0,0,1,29.31-7.17,60.76,60.76,0,0,1,22.45,4.05A46.57,46.57,0,0,1,525,643.17l-7.33,7.33q-12.78-12.94-32.27-12.94a47.41,47.41,0,0,0-23.54,5.92,43.3,43.3,0,0,0-16.61,16.22,47.35,47.35,0,0,0,0,46.14,43.3,43.3,0,0,0,16.61,16.22A47.41,47.41,0,0,0,485.44,728q19.65,0,32.27-13.09l7.33,7.32a47.12,47.12,0,0,1-17.54,11.93A60.19,60.19,0,0,1,485,738.27,59.57,59.57,0,0,1,455.74,731.1Z" transform="translate(-200.6 -96.47)"/><path class="cls-1" d="M583.5,686l-22.29,22.61v28.69H549.67V628.2h11.54v65.95l64.08-65.95h13.25L591.3,677.63l50.51,59.71H628.09Z" transform="translate(-200.6 -96.47)"/><path class="cls-1" d="M667.77,726.27q-13-12.94-13-36.95V628.2H680v60.18q0,29.31,24.32,29.31,11.85,0,18.09-7.09t6.23-22.22V628.2h25v61.12q0,24-13,36.95t-36.41,12.94Q680.79,739.21,667.77,726.27Z" transform="translate(-200.6 -96.47)"/><path class="cls-1" d="M851,633a37.39,37.39,0,0,1,16.45,13.72q5.76,8.88,5.77,21a37.91,37.91,0,0,1-5.77,21A36.74,36.74,0,0,1,851,702.49q-10.68,4.75-25.18,4.76h-22v30.09H778.54V628.2h47.24Q840.29,628.2,851,633Zm-9.28,48.72q5.93-4.92,5.93-14,0-9.19-5.93-14.11t-17.3-4.91H803.8v37.89h20.58Q835.75,686.67,841.68,681.76Z" transform="translate(-200.6 -96.47)"/><path class="cls-1" d="M914.72,732a54.07,54.07,0,0,1-21.2-20.11,58.63,58.63,0,0,1,0-58.16,54.14,54.14,0,0,1,21.2-20.11,63.06,63.06,0,0,1,30.33-7.25,63.71,63.71,0,0,1,25.64,5A51.51,51.51,0,0,1,990,645.66l-16.22,15q-11.07-12.78-27.44-12.78a36.45,36.45,0,0,0-18.08,4.44,31.64,31.64,0,0,0-12.4,12.39,39.07,39.07,0,0,0,0,36.18,31.64,31.64,0,0,0,12.4,12.39,36.45,36.45,0,0,0,18.08,4.44q16.38,0,27.44-12.94l16.22,15a50.64,50.64,0,0,1-19.34,14.5,64.23,64.23,0,0,1-25.72,5A62.73,62.73,0,0,1,914.72,732Z" transform="translate(-200.6 -96.47)"/></svg>