<svg id="Capa_6" data-name="Capa 6" xmlns="http://www.w3.org/2000/svg" viewBox="0 0 841.89 362"><defs><style>.cls-1{font-size:98px;fill:none;stroke:#1d1d1b;stroke-miterlimit:10;stroke-width:3px;font-family:Montserrat-ExtraBoldItalic, Montserrat;font-weight:700;font-style:italic;}.cls-2{letter-spacing:-0.01em;}.cls-3,.cls-4,.cls-5,.cls-6,.cls-7{fill:#1d1d1b;}.cls-3{letter-spacing:-0.03em;}.cls-4{letter-spacing:-0.02em;}.cls-5{letter-spacing:-0.1em;}.cls-6{letter-spacing:-0.06em;}</style></defs><title>logotype</title><g id="Capa_1" data-name="Capa 1"><text class="cls-1" transform="translate(139.49 334.23)">H<tspan class="cls-2" x="78.99" y="0">A</tspan><tspan x="155.04" y="0">CK</tspan><tspan class="cls-3" x="301.05" y="0">P</tspan><tspan class="cls-4" x="369.85" y="0">L</tspan><tspan class="cls-5" x="427.96" y="0">A</tspan><tspan class="cls-6" x="495" y="0">Y</tspan></text><path class="cls-7" d="M560.23,266.44l-.29-.25-165-145.55-.19-.18-.42-.37-.05,0a7.36,7.36,0,0,0-11.73,4.2,1.42,1.42,0,0,0-.05.22l-19.63,95.44a21.3,21.3,0,1,0,10.43,2.14L391.59,133l.18-.88.68.6L547.64,269.54l1.69,1.49-2.15.71L350,336.79l-.82.27.17-.84,3.66-17.7a21.3,21.3,0,1,0-10.42-2.15l-4.79,23.16-.28,1.38-.11.54a4.71,4.71,0,0,0,0,.53,7.38,7.38,0,0,0,7.38,7.37,7.19,7.19,0,0,0,1.93-.26l0,0,.63-.2,209.14-69,1.86-.61h0a7.82,7.82,0,0,0,1.87-12.82ZM371.72,242.8a8,8,0,1,1-1.42-6.37A8,8,0,0,1,371.72,242.8Zm-27.6,52.81a8,8,0,1,1,1.41,6.38A8,8,0,0,1,344.12,295.61Z" transform="translate(0 -118.48)"/><path class="cls-7" d="M558.34,279.27a7.51,7.51,0,0,1-1.86.61Z" transform="translate(0 -118.48)"/><path class="cls-7" d="M337.38,341.45a6.83,6.83,0,0,1,.39-1.92l-.28,1.38Z" transform="translate(0 -118.48)"/></g></svg>