<svg id="Capa_4" data-name="Capa 4" xmlns="http://www.w3.org/2000/svg" viewBox="0 0 217.48 226.98"><defs><style>.cls-1{fill:#8f4e99;}</style></defs><title>logo-hacknights-complet</title><g id="moon"><path class="cls-1" d="M355.3,472.39c0-.13,0-.26,0-.38a8.23,8.23,0,0,0-16.41,0c0,.12,0,.24,0,.36q-2,.36-4.11.63a82.6,82.6,0,0,1-10.25.64c-44.23,0-80.08-35.55-80.08-79.41s35.85-79.42,80.08-79.42a81.06,81.06,0,0,1,10.28.65,12.18,12.18,0,0,1,.82-4.11,86.47,86.47,0,0,0-11.1-.72c-46.5,0-84.19,37.42-84.19,83.57S278,477.77,324.5,477.77a84.09,84.09,0,0,0,11.06-.72c1.41-.18,2.81-.4,4.2-.65a8.23,8.23,0,0,0,15.54-3.77Zm-5.41,1.51a3.1,3.1,0,0,1-2.81,1.81,3,3,0,0,1-1.73-.53,3.11,3.11,0,0,1-1.08-1.27,3,3,0,0,1-.28-1.28,3,3,0,0,1,.36-1.43,3.06,3.06,0,0,1,2.73-1.66,3.1,3.1,0,0,1,2.73,1.67,2.93,2.93,0,0,1,.35,1.42A3.18,3.18,0,0,1,349.89,473.9Z" transform="translate(-188.9 -307.56)"/><path class="cls-1" d="M275.38,424.23a8.25,8.25,0,0,0-2.87.51c-.72-1.21-1.4-2.45-2-3.71a59.86,59.86,0,0,1,0-53.74c.61-1.21,1.26-2.39,1.95-3.55A8.24,8.24,0,0,0,283.55,356a8.15,8.15,0,0,0-1.41-4.6,8.22,8.22,0,1,0-13.1,9.9c-.72,1.2-1.41,2.43-2.06,3.69a64.05,64.05,0,0,0,0,58.31c.67,1.3,1.38,2.57,2.13,3.82a8.23,8.23,0,0,0,10,12.65,8.29,8.29,0,0,0,3.13-2.77,8.22,8.22,0,0,0-6.83-12.8ZM275,353l.3,0a3.09,3.09,0,0,1,3,2.54,3.31,3.31,0,0,1,.05.55,3.09,3.09,0,0,1-2.91,3.08h-.17a3.09,3.09,0,0,1-3.06-2.64,3.25,3.25,0,0,1,0-.44A3.09,3.09,0,0,1,275,353Zm-2.74,79.49a3.55,3.55,0,0,1,0-.46h0a3.1,3.1,0,0,1,3.06-2.62h.19a3.08,3.08,0,0,1,2.89,3.07,3,3,0,0,1,0,.52,3.07,3.07,0,0,1-3,2.57h-.27A3.09,3.09,0,0,1,272.29,432.45Z" transform="translate(-188.9 -307.56)"/><path class="cls-1" d="M354.42,312a8.23,8.23,0,0,0-15.53,3.79c0,.1,0,.21,0,.31s0,.19,0,.28c-1.32.51-2.63,1.06-3.93,1.64a83.35,83.35,0,0,0,0,152.36,12,12,0,0,1,1.42-3.88A79.17,79.17,0,0,1,336.43,322c1.26-.58,2.53-1.12,3.83-1.62a8.23,8.23,0,0,0,15.06-3.91c0-.11,0-.22,0-.34v-.29A8.19,8.19,0,0,0,354.42,312Zm-4.6,5.27h0a3.06,3.06,0,0,1-1.21,1.21,3,3,0,0,1-1.49.39,3.09,3.09,0,0,1-3.09-3.08,3.18,3.18,0,0,1,.29-1.31h0a3.07,3.07,0,0,1,2.8-1.78,3.09,3.09,0,0,1,1.7.51h0a3.14,3.14,0,0,1,1.11,1.31,3.18,3.18,0,0,1,.27,1.27A3.1,3.1,0,0,1,349.82,317.27Z" transform="translate(-188.9 -307.56)"/></g><g id="lettering"><path class="cls-1" d="M209.65,512.3v21.8h-6.17v-8.5h-8.41v8.5H188.9V512.3h6.17v8.19h8.41V512.3Z" transform="translate(-188.9 -307.56)"/><path class="cls-1" d="M228.61,529.87h-9.22l-1.71,4.23h-6.29L221,512.3h6.08l9.65,21.8h-6.41Zm-1.8-4.55-2.81-7-2.8,7Z" transform="translate(-188.9 -307.56)"/><path class="cls-1" d="M242.9,533.09a10.89,10.89,0,0,1-4.29-4,11.85,11.85,0,0,1,0-11.72,10.89,10.89,0,0,1,4.29-4,12.81,12.81,0,0,1,6.15-1.45,13.33,13.33,0,0,1,5.39,1.06,10.37,10.37,0,0,1,4,3.05l-3.92,3.55a6.46,6.46,0,0,0-5.14-2.55,6.33,6.33,0,0,0-3.16.78,5.4,5.4,0,0,0-2.15,2.19,7.37,7.37,0,0,0,0,6.52,5.4,5.4,0,0,0,2.15,2.19,6.33,6.33,0,0,0,3.16.78,6.44,6.44,0,0,0,5.14-2.56l3.92,3.56a10.46,10.46,0,0,1-4,3.05,13.33,13.33,0,0,1-5.39,1.06A12.81,12.81,0,0,1,242.9,533.09Z" transform="translate(-188.9 -307.56)"/><path class="cls-1" d="M269.57,526.19l-2.3,2.46v5.45h-6.11V512.3h6.11v9.06l8.44-9.06h6.79L273.59,522,283,534.1H275.8Z" transform="translate(-188.9 -307.56)"/><path class="cls-1" d="M305.33,512.3v21.8h-5.08l-9.62-11.62V534.1h-6V512.3h5.07l9.63,11.62V512.3Z" transform="translate(-188.9 -307.56)"/><path class="cls-1" d="M309.69,512.3h6.17v21.8h-6.17Z" transform="translate(-188.9 -307.56)"/><path class="cls-1" d="M334.86,522.73h5.45v9a14.16,14.16,0,0,1-4.3,2.06,17,17,0,0,1-4.86.72,12.91,12.91,0,0,1-6.16-1.45,10.85,10.85,0,0,1-4.3-4,11.79,11.79,0,0,1,0-11.72,10.8,10.8,0,0,1,4.33-4,13.23,13.23,0,0,1,6.26-1.45,13.87,13.87,0,0,1,5.48,1,10.59,10.59,0,0,1,4.05,3l-3.93,3.55a6.89,6.89,0,0,0-5.29-2.43,5.86,5.86,0,0,0-6.23,6.23,6.56,6.56,0,0,0,.78,3.22,5.46,5.46,0,0,0,2.18,2.21,6.27,6.27,0,0,0,3.21.8,7.85,7.85,0,0,0,3.33-.72Z" transform="translate(-188.9 -307.56)"/><path class="cls-1" d="M365,512.3v21.8h-6.17v-8.5H350.4v8.5h-6.17V512.3h6.17v8.19h8.41V512.3Z" transform="translate(-188.9 -307.56)"/><path class="cls-1" d="M374,517.19h-6.7V512.3h19.53v4.89h-6.66V534.1H374Z" transform="translate(-188.9 -307.56)"/><path class="cls-1" d="M391.58,533.88a12.47,12.47,0,0,1-4.05-1.74l2-4.55a13.24,13.24,0,0,0,3.39,1.56,13.06,13.06,0,0,0,3.8.59c2.37,0,3.55-.59,3.55-1.77a1.47,1.47,0,0,0-1-1.39,18.61,18.61,0,0,0-3.26-1,29.8,29.8,0,0,1-4.11-1.14,6.81,6.81,0,0,1-2.83-2,5.24,5.24,0,0,1-1.19-3.61,6.26,6.26,0,0,1,1.09-3.59,7.32,7.32,0,0,1,3.26-2.54,13.25,13.25,0,0,1,5.31-.94,18.88,18.88,0,0,1,4.24.48,13.3,13.3,0,0,1,3.67,1.42l-1.9,4.58a12.71,12.71,0,0,0-6-1.68,5.1,5.1,0,0,0-2.68.54,1.65,1.65,0,0,0-.84,1.42,1.4,1.4,0,0,0,1,1.31,17.87,17.87,0,0,0,3.2.9,31.47,31.47,0,0,1,4.13,1.14,7.23,7.23,0,0,1,2.84,1.93,5.2,5.2,0,0,1,1.2,3.6,6.18,6.18,0,0,1-1.09,3.55,7.49,7.49,0,0,1-3.28,2.54,13.24,13.24,0,0,1-5.29.95A20,20,0,0,1,391.58,533.88Z" transform="translate(-188.9 -307.56)"/></g></svg>