<svg id="Capa_12" data-name="Capa 12" xmlns="http://www.w3.org/2000/svg" viewBox="0 0 841.89 241.34"><defs><style>.cls-1{font-size:45.35px;font-family:Montserrat-Bold, Montserrat;font-weight:700;}.cls-1,.cls-5{fill:#f39200;}.cls-2{letter-spacing:-0.01em;}.cls-3{letter-spacing:-0.02em;}.cls-4{letter-spacing:-0.03em;}</style></defs><title>logo-hackstart-complet</title><text class="cls-1" transform="translate(277.13 228.4)">H<tspan class="cls-2" x="36.65" y="0">A</tspan><tspan x="70.93" y="0">C</tspan><tspan class="cls-3" x="104.18" y="0">K</tspan><tspan class="cls-2" x="137.06" y="0">S</tspan><tspan class="cls-4" x="165.54" y="0">T</tspan><tspan x="191.98" y="0">A</tspan><tspan class="cls-2" x="226.72" y="0">R</tspan><tspan x="259.61" y="0">T</tspan></text><path class="cls-5" d="M490.1,277.89a69.16,69.16,0,1,1-120.65-46.1c.43-.49.87-1,1.31-1.43a5.56,5.56,0,0,1,8.95,4.42,5.46,5.46,0,0,1-.86,3c-.46.48-.92,1-1.36,1.48a58.21,58.21,0,1,0,86.86-.05c-.4-.46-.82-.91-1.24-1.36a5.57,5.57,0,0,1,1.28-7.45,5.54,5.54,0,0,1,6.68-.06c.5.52,1,1,1.45,1.58A68.84,68.84,0,0,1,490.1,277.89Z" transform="translate(0 -176.97)"/><path class="cls-5" d="M425.89,256.75V220a21.84,21.84,0,1,0-11,0v36.8a21.83,21.83,0,1,0,11,0Zm-13.7-57.95a8.2,8.2,0,1,1,8.2,8.2,8.22,8.22,0,0,1-8.2-8.2Zm13.37,85.46a8.18,8.18,0,1,1,3-6.37A8.14,8.14,0,0,1,425.56,284.26Z" transform="translate(0 -176.97)"/></svg>